# xmcd CD database file
#
# Track frame offsets:
#	150
#	11995
#	24779
#	33429
#	42720
#	52688
#	64905
#	77693
#	89533
#	101457
#	110046
#	122561
#	136794
#	149799
#	159521
#
# Disc length: 2270 seconds
#
# Revision: 0
# Processed by: cddbd v1.5.2PL0 Copyright (c) Steve Scherf et al.
# Submitted via: CDex 1.70beta2
#
DISCID=c908dc0f
DTITLE=Various Artist - Under the Mistletoe
DYEAR=1900
DGENRE=Jazz
TTITLE0=Let It Snow! Let It Snow! Let It Snow! - Frank Sinatra
TTITLE1=Baby, It's Cold Outside - Margaret Whiting and Johnny Mercer
TTITLE2=Winter Wonderland - Peggy Lee
TTITLE3=Caroling, Caroling - Nat King Cole
TTITLE4=Jingle Bell Rock - Wayne Newton
TTITLE5=(Everybody's Waitin' For) The Man with the Bag - Kay Starr
TTITLE6=Have Yourself a Merry Little Christmas - Bing Crosby
TTITLE7=Jingle All the Way - Lena Horne
TTITLE8=Happy Holidays/The Holiday Season Medley - Andy Williams
TTITLE9=We Need a Little Christmas - Dinah Shore
TTITLE10=Santa Claus In Comin' to Town - Johnny Mercer and The Pied Pipers
TTITLE11=Christmas Is - Lou Rawls
TTITLE12=(There's No Place Like) Home for the Holidays - Perry Como
TTITLE13=The Merriest - June Christy
TTITLE14=What Are You Doing New Year's Eve? - Nancy Wilson
EXTD=
EXTT0=
EXTT1=
EXTT2=
EXTT3=
EXTT4=
EXTT5=
EXTT6=
EXTT7=
EXTT8=
EXTT9=
EXTT10=
EXTT11=
EXTT12=
EXTT13=
EXTT14=
PLAYORDER=
